<svg xmlns="http://www.w3.org/2000/svg" viewBox="0 0 512 512" style="height: 512px; width: 512px;"><g class="" transform="translate(0,0)" style=""><path d="M160.72 16C136 16.11 136 17.875 136 46v300c0 30 0 30 30 30h180c30 0 30 0 30-30V46c0-30 0-30-30-30H166c-1.875 0-3.633-.007-5.28 0zM196 76h120v210H196V76zm-46.656 345A13.333 13.333 0 0 0 136 434.344v48.312A13.333 13.333 0 0 0 149.344 496h213.312A13.333 13.333 0 0 0 376 482.656v-48.312A13.333 13.333 0 0 0 362.656 421H149.344z" fill="#fff" fill-opacity="1" transform="translate(76.8, 76.8) scale(0.7, 0.7) rotate(0, 256, 256) skewX(0) skewY(0)"></path></g></svg>